<?xml version="1.0" encoding="UTF-8"?>
<svg width="48px" height="48px" viewBox="0 0 48 48" version="1.1" xmlns="http://www.w3.org/2000/svg" xmlns:xlink="http://www.w3.org/1999/xlink">
    <!-- Generator: Sketch 49 (51002) - http://www.bohemiancoding.com/sketch -->
    <title>robo3t</title>
    <desc>Created with Sketch.</desc>
    <defs>
        <path d="M27.1585233,38.5348478 C27.1716105,38.5623925 27.1685323,38.5942899 27.1618382,38.6292649 C26.883799,40.0869569 25.4921814,41.3353018 24.0103186,41.5171992 C22.9358578,41.6490267 21.9721814,41.409963 21.1140931,40.7707351 C20.3888971,40.2305626 19.931299,39.4983409 19.7355637,38.6072854 C19.7303238,38.5833286 19.7316608,38.5620023 19.7395215,38.5430852 C19.6999468,38.5157344 19.6629541,38.4850751 19.6310784,38.4480821 C19.4660784,38.2848624 19.2510784,38.1976345 19.0614706,38.0718193 C17.972549,37.3496509 17.0236765,36.4852074 16.3198529,35.3691828 C16.1004902,35.0214045 15.9205392,34.6533717 15.8244608,34.251729 C15.7918627,34.1153183 15.7278922,34.0177906 15.6298039,33.9246982 C13.2647549,31.6783573 11.8414216,28.9095852 11.1480392,25.7383326 C11.1163235,25.5933963 11.0704902,25.4889199 10.9254412,25.4194333 C10.6591667,25.2918932 10.440098,25.0910226 10.2147059,24.9023737 C10.1738847,24.8856466 10.1343595,24.8668488 10.0987537,24.8415525 C9.79024293,25.4386142 9.50314801,26.0457499 9.30482843,26.6899548 C9.05953431,27.4866858 8.89762255,28.2972649 8.83654412,29.1340616 C8.69422541,31.0834821 9.16088645,32.8874554 10.0387732,34.602969 C10.0513748,34.6028366 10.0640304,34.6028028 10.0767402,34.6028682 C10.1155147,34.6118374 10.1482108,34.634901 10.1843873,34.6498333 C10.4928676,34.6922645 10.7968382,34.7546546 11.0675735,34.9173322 C11.1718382,34.9799688 11.2697304,34.9622275 11.3736029,34.9410858 C12.6148775,34.6884698 13.7003186,35.0196402 14.6376225,35.8507696 C15.2717892,36.413168 15.1250735,37.5148517 14.391348,37.7770283 C13.8377696,37.9748435 13.3567402,37.8290201 12.9242892,37.442014 C12.3602206,36.937324 11.458848,37.0051351 10.9668382,37.5751228 C10.4641422,38.1575294 10.5094363,39.0396649 11.0742892,39.5475088 C11.2843873,39.7363548 11.52875,39.8628107 11.8145833,39.8976033 C12.1091422,39.9334308 12.3899265,40.014745 12.6376225,40.1850119 C13.0451716,40.4652255 13.1757108,40.8903754 13.0153676,41.3987121 C12.85125,41.9190242 12.4385539,42.2531515 11.9697304,42.2453651 C10.383799,42.2188517 8.90973039,40.9912049 8.5510049,39.3974965 C8.45296569,38.9620468 8.41007353,38.5232953 8.48752451,38.0796649 C8.50561275,37.975977 8.48639706,37.8935786 8.42321078,37.8059072 C8.17115196,37.4564041 8.05747549,37.0600838 8.0557598,36.6299072 C8.0564951,36.5642152 8.05718137,36.4985232 8.05786765,36.4328312 C7.57531855,35.7839341 7.25051467,35.0488048 6.94213235,34.3095359 C6.56330882,33.4014784 6.32654412,32.4470472 6.20762255,31.4722136 C6.10384804,30.6214702 6.06938725,29.7669322 6.13448529,28.9032279 C6.21492647,27.8363368 6.3989951,26.7967474 6.74595588,25.790423 C7.24664216,24.3381027 7.97419118,23.0108583 9.00129902,21.861076 C9.03718051,21.8208925 9.07926034,21.7862822 9.12146575,21.7517988 C9.1233522,21.7339307 9.12548002,21.7160887 9.12813725,21.6982998 C9.13936275,21.6164928 9.21352941,21.5633676 9.22534314,21.4817577 C9.42245098,20.8473101 9.71563725,20.2700287 10.1998039,19.8031869 C10.4189706,19.5918686 10.6548039,19.403614 10.9215196,19.2586283 C11.0172059,19.2066366 11.0664706,19.1373963 11.0886275,19.0346448 C11.6547059,16.4062752 12.8014216,14.0287967 14.214951,11.7703326 C16.1017647,8.75564682 18.4003922,6.07656674 20.8844118,3.55065298 C21.6821569,2.73943326 22.5015686,1.95068583 23.3348039,1.17637782 C23.3936275,1.12167556 23.445098,1.05898973 23.5,1 L23.5490196,1 C24.3809804,1.69895688 25.2052941,2.4062423 25.9808333,3.16936345 C29.059902,6.19908008 31.7398529,9.53813552 33.7817647,13.3681807 C34.7435294,15.1722218 35.4977451,17.0594004 35.9419608,19.0632772 C35.9625,19.1559754 35.9853922,19.2297988 36.0733824,19.2827762 C36.8629902,19.7580945 37.3905392,20.4421191 37.6688725,21.3226283 C37.6785294,21.353232 37.6972059,21.3809774 37.7117157,21.4101027 C37.7718627,21.4833347 37.7719118,21.580271 37.8107843,21.662078 C37.8126327,21.6725023 37.8144421,21.6829156 37.8162126,21.6933179 C38.1773996,21.9719558 38.4245032,22.3539244 38.683098,22.7184526 C39.5816765,23.9851795 40.2196176,25.3763417 40.5691275,26.8946004 C40.7190784,27.5460501 40.8178529,28.2048427 40.8639804,28.8754136 C40.8956471,29.3347154 40.9170196,29.7933766 40.8959902,30.2498201 C40.828098,31.7204238 40.5589804,33.1508632 39.9712843,34.5091055 C39.6913824,35.1559721 39.3905,35.792046 38.9936373,36.3770152 C38.9671784,36.4160057 38.9283744,36.4465096 38.8952868,36.4809095 C38.8952321,36.4809902 38.8951774,36.4810709 38.8951225,36.4811515 C38.8965931,36.5510817 38.8981618,36.6210119 38.8996814,36.6909421 C38.876152,37.0742522 38.783799,37.4370119 38.5620343,37.7550735 C38.4934069,37.8534883 38.4956127,37.9506218 38.5102206,38.0582029 C38.7973775,40.1631556 37.2442892,42.0933076 35.1447794,42.2417429 C34.568701,42.2824493 34.0919363,41.9048066 33.951299,41.296478 C33.8214951,40.734671 34.0603676,40.2841906 34.6067402,40.0511885 C34.8040441,39.9670653 35.0099755,39.9244862 35.2201225,39.8904329 C35.8139951,39.7941372 36.2524265,39.3452337 36.361299,38.7296608 C36.46125,38.164552 36.1859559,37.5811105 35.6818382,37.2894144 C35.1729657,36.9950571 34.5148775,37.0489216 34.0823775,37.4351885 C33.8245833,37.6655294 33.5419363,37.8298825 33.193799,37.8594021 C32.6599265,37.904593 32.2659069,37.6901207 32.0707598,37.2527491 C31.8656618,36.793053 31.9557108,36.2270078 32.3229657,35.8898743 C33.248848,35.0399688 34.3330147,34.7013076 35.5754657,34.9300222 C35.7120833,34.9552049 35.8251716,34.9537758 35.9481618,34.8845848 C36.216299,34.7336854 36.513652,34.6798702 36.8159069,34.6499565 C36.8518873,34.6347778 36.8846814,34.6120099 36.9235539,34.6034349 C36.9361932,34.6033303 36.9488255,34.6033642 36.9614491,34.6035353 C37.474984,33.6221279 37.8541189,32.5914671 38.0343725,31.4951589 C38.1573627,30.7472657 38.2283922,29.9993725 38.1722157,29.2312739 C38.0933431,28.1523088 37.8682451,27.1181405 37.4868725,26.1121117 C37.335598,25.7130809 37.1549118,25.3282431 36.9500588,24.9550357 C36.9237764,24.9072688 36.896832,24.8630849 36.8850767,24.8130962 C36.8536155,24.837434 36.819145,24.8570766 36.7788725,24.8675318 C36.5563725,25.0454867 36.3492157,25.2454702 36.0970588,25.3816838 C35.9717157,25.4493963 35.9752451,25.5664887 35.9529412,25.6745133 C35.3594608,28.5440657 34.1382843,31.097922 32.1303922,33.2395893 C31.5573529,33.8508255 31.0302451,34.4558029 30.6357843,35.2237043 C29.9589706,36.5413881 28.8192157,37.4572813 27.5757353,38.23154 C27.4790196,38.2918111 27.3819118,38.3513429 27.284951,38.4112197 C27.2405485,38.4497789 27.2051567,38.4986991 27.1585233,38.5348478 Z" id="path-1"></path>
        <filter x="-10.1%" y="-6.1%" width="120.1%" height="117.0%" filterUnits="objectBoundingBox" id="filter-2">
            <feOffset dx="0" dy="1" in="SourceAlpha" result="shadowOffsetOuter1"></feOffset>
            <feGaussianBlur stdDeviation="1" in="shadowOffsetOuter1" result="shadowBlurOuter1"></feGaussianBlur>
            <feComposite in="shadowBlurOuter1" in2="SourceAlpha" operator="out" result="shadowBlurOuter1"></feComposite>
            <feColorMatrix values="0 0 0 0 0   0 0 0 0 0   0 0 0 0 0  0 0 0 0.2 0" type="matrix" in="shadowBlurOuter1"></feColorMatrix>
        </filter>
        <polygon id="path-3" points="0.0450686275 0.00765338809 3.33333333 0.00765338809 3.33333333 15.2884583 0.0450686275 15.2884583"></polygon>
    </defs>
    <g id="robo3t" stroke="none" stroke-width="1" fill="none" fill-rule="evenodd">
        <g id="Combined-Shape">
            <use fill="black" fill-opacity="1" filter="url(#filter-2)" xlink:href="#path-1"></use>
            <use fill-opacity="0.1" fill="#000000" fill-rule="evenodd" xlink:href="#path-1"></use>
        </g>
        <g id="Page-1" transform="translate(6.000000, 1.000000)">
            <path d="M17.5490196,0 C18.3809804,0.698956879 19.2052941,1.4062423 19.9808333,2.16936345 C23.059902,5.19908008 25.7398529,8.53813552 27.7817647,12.3681807 C28.7435294,14.1722218 29.4977451,16.0594004 29.9419608,18.0632772 C29.9625,18.1559754 29.9853922,18.2297988 30.0733824,18.2827762 C30.8629902,18.7580945 31.3905392,19.4421191 31.6688725,20.3226283 C31.6785294,20.353232 31.6972059,20.3809774 31.7117157,20.4101027 C31.7718627,20.4833347 31.7719118,20.580271 31.8107843,20.662078 C32.0190686,21.8367474 31.7330392,22.8714579 30.9413235,23.7629569 C30.8945098,23.809232 30.8443627,23.8505298 30.7788725,23.8675318 C30.5563725,24.0454867 30.3492157,24.2454702 30.0970588,24.3816838 C29.9717157,24.4493963 29.9752451,24.5664887 29.9529412,24.6745133 C29.3594608,27.5440657 28.1382843,30.097922 26.1303922,32.2395893 C25.5573529,32.8508255 25.0302451,33.4558029 24.6357843,34.2237043 C23.9589706,35.5413881 22.8192157,36.4572813 21.5757353,37.23154 C21.4790196,37.2918111 21.3819118,37.3513429 21.284951,37.4112197 C21.2270098,37.4615359 21.1844118,37.5294949 21.1121569,37.5636961 C19.8835294,38.2250513 18.582549,38.6068337 17.1787255,38.5534127 C16.2408824,38.5177331 15.3451961,38.2806899 14.4845588,37.9081232 C14.2453922,37.8045339 14.0013725,37.7106037 13.780049,37.5695606 C13.7252941,37.5355565 13.6736275,37.497462 13.6310784,37.4480821 C13.4660784,37.2848624 13.2510784,37.1976345 13.0614706,37.0718193 C11.972549,36.3496509 11.0236765,35.4852074 10.3198529,34.3691828 C10.1004902,34.0214045 9.92053922,33.6533717 9.82446078,33.251729 C9.79186275,33.1153183 9.72789216,33.0177906 9.62980392,32.9246982 C7.2647549,30.6783573 5.84142157,27.9095852 5.14803922,24.7383326 C5.11632353,24.5933963 5.0704902,24.4889199 4.92544118,24.4194333 C4.65916667,24.2918932 4.44009804,24.0910226 4.21470588,23.9023737 C4.15529412,23.8780287 4.09862745,23.8492977 4.05279412,23.8025298 C3.27995098,22.9739138 2.96955882,21.9945955 3.1095098,20.8693552 C3.11656863,20.812386 3.11965686,20.7550719 3.12813725,20.6982998 C3.13936275,20.6164928 3.21352941,20.5633676 3.22534314,20.4817577 C3.42245098,19.8473101 3.71563725,19.2700287 4.19980392,18.8031869 C4.41897059,18.5918686 4.65480392,18.403614 4.92151961,18.2586283 C5.01720588,18.2066366 5.06647059,18.1373963 5.08862745,18.0346448 C5.65470588,15.4062752 6.80142157,13.0287967 8.21495098,10.7703326 C10.1017647,7.75564682 12.4003922,5.07656674 14.8844118,2.55065298 C15.6821569,1.73943326 16.5015686,0.950685832 17.3348039,0.176377823 C17.3936275,0.121675565 17.445098,0.0589897331 17.5,0 L17.5490196,0 Z" id="Fill-1" fill="#20812C"></path>
            <path d="M15.1960784,46 C15.1513235,45.9515565 15.0918627,45.9610678 15.0356373,45.95954 C14.3095098,45.9399261 13.582598,45.9361314 12.857451,45.8980862 C11.3447549,45.8186448 9.82955882,45.7558604 8.33794118,45.4570185 C8.1947549,45.4283368 8.05284314,45.387039 7.91568627,45.3368214 C7.82808824,45.3046899 7.70421569,45.2725092 7.71308824,45.1545791 C7.72122549,45.045963 7.83946078,45.0112197 7.9297549,44.9790883 C8.21460784,44.8777166 8.5102451,44.8135031 8.80828431,44.771614 C9.95470588,44.6105133 11.1068627,44.5169774 12.2633824,44.4595647 C13.1518137,44.4155072 14.0405882,44.3954497 14.9289216,44.3597207 C16.3335294,44.3030965 17.7380392,44.3144805 19.1420098,44.3355236 C20.5365686,44.3563203 21.9318627,44.4036304 23.3240196,44.4867187 C24.4444118,44.5534949 25.5679902,44.6279097 26.6703922,44.8684025 C26.8209314,44.9012238 26.9683824,44.950653 27.1147059,45.00023 C27.1914216,45.0262012 27.2835784,45.0653306 27.2883333,45.1544312 C27.2941176,45.2627023 27.1872059,45.2942423 27.1068137,45.3275072 C26.8109314,45.4501191 26.4962255,45.5040329 26.1830882,45.5508501 C25.0620098,45.7184066 23.9330882,45.800115 22.8016176,45.8613224 C21.8562255,45.9123778 20.9112255,45.9577659 19.9644118,45.9597372 C19.9081863,45.9598357 19.8486765,45.9515565 19.8039216,46 L15.1960784,46 Z" id="Fill-3" fill="#A9A9A9"></path>
            <g id="Group-7" transform="translate(31.666667, 20.402464)">
                <mask id="mask-4" fill="white">
                    <use xlink:href="#path-3"></use>
                </mask>
                <g id="Clip-6"></g>
            </g>
            <path d="M2.0557598,35.6299072 C2.0564951,35.5642152 2.05718137,35.4985232 2.05786765,35.4328312 C1.99997549,35.129209 2.12708333,34.865209 2.27884804,34.6307778 C2.69811275,33.9830242 3.28125,33.5987778 4.0767402,33.6028682 C4.11551471,33.6118374 4.14821078,33.634901 4.18438725,33.6498333 C4.49286765,33.6922645 4.79683824,33.7546546 5.06757353,33.9173322 C5.17183824,33.9799688 5.26973039,33.9622275 5.37360294,33.9410858 C6.61487745,33.6884698 7.70031863,34.0196402 8.63762255,34.8507696 C9.27178922,35.413168 9.12507353,36.5148517 8.39134804,36.7770283 C7.83776961,36.9748435 7.3567402,36.8290201 6.92428922,36.442014 C6.36022059,35.937324 5.45884804,36.0051351 4.96683824,36.5751228 C4.46414216,37.1575294 4.50943627,38.0396649 5.07428922,38.5475088 C5.28438725,38.7363548 5.52875,38.8628107 5.81458333,38.8976033 C6.10914216,38.9334308 6.38992647,39.014745 6.63762255,39.1850119 C7.04517157,39.4652255 7.17571078,39.8903754 7.01536765,40.3987121 C6.85125,40.9190242 6.43855392,41.2531515 5.96973039,41.2453651 C4.38379902,41.2188517 2.90973039,39.9912049 2.5510049,38.3974965 C2.45296569,37.9620468 2.41007353,37.5232953 2.48752451,37.0796649 C2.50561275,36.975977 2.48639706,36.8935786 2.42321078,36.8059072 C2.17115196,36.4564041 2.05747549,36.0600838 2.0557598,35.6299072" id="Fill-10" fill="#20812B"></path>
            <path d="M32.8951225,35.4811515 C32.8965931,35.5510817 32.8981618,35.6210119 32.8996814,35.6909421 C32.876152,36.0742522 32.783799,36.4370119 32.5620343,36.7550735 C32.4934069,36.8534883 32.4956127,36.9506218 32.5102206,37.0582029 C32.7973775,39.1631556 31.2442892,41.0933076 29.1447794,41.2417429 C28.568701,41.2824493 28.0919363,40.9048066 27.951299,40.296478 C27.8214951,39.734671 28.0603676,39.2841906 28.6067402,39.0511885 C28.8040441,38.9670653 29.0099755,38.9244862 29.2201225,38.8904329 C29.8139951,38.7941372 30.2524265,38.3452337 30.361299,37.7296608 C30.46125,37.164552 30.1859559,36.5811105 29.6818382,36.2894144 C29.1729657,35.9950571 28.5148775,36.0489216 28.0823775,36.4351885 C27.8245833,36.6655294 27.5419363,36.8298825 27.193799,36.8594021 C26.6599265,36.904593 26.2659069,36.6901207 26.0707598,36.2527491 C25.8656618,35.793053 25.9557108,35.2270078 26.3229657,34.8898743 C27.248848,34.0399688 28.3330147,33.7013076 29.5754657,33.9300222 C29.7120833,33.9552049 29.8251716,33.9537758 29.9481618,33.8845848 C30.216299,33.7336854 30.513652,33.6798702 30.8159069,33.6499565 C30.8518873,33.6347778 30.8846814,33.6120099 30.9235539,33.6034349 C31.8584559,33.5956977 32.7551716,34.3459565 32.9164951,35.2689462 C32.9293873,35.3429667 32.9405637,35.4142768 32.8951225,35.4811515" id="Fill-12" fill="#20812B"></path>
            <path d="M29.9130522,21.0548175 C29.8899185,23.345917 29.5188214,25.3672715 28.7403701,27.3072979 C28.1649014,28.7413959 27.3948797,30.0665269 26.4058781,31.2493219 C25.1717456,32.7252636 23.7045519,33.9152814 21.9401164,34.7025594 C20.9486243,35.1449278 19.9169954,35.4411081 18.8329206,35.5753547 C16.8828888,35.8166903 15.0205542,35.5337517 13.2257049,34.7440661 C12.1533166,34.2721808 11.1860598,33.6409619 10.2947658,32.8790116 C8.98831057,31.7622324 7.95730437,30.4301194 7.13033452,28.9257683 C6.31505126,27.4427001 5.76592527,25.8645808 5.44602884,24.2070114 C5.30583767,23.4806451 5.21675138,22.7449373 5.18020684,22.0015735 C5.16138377,21.61795 5.14246491,21.2346154 5.14576972,20.8512327 C5.15745631,19.4862322 5.38098627,18.1533969 5.7689906,16.8468524 C6.1989996,15.3986941 6.80770803,14.0253634 7.51618354,12.6970544 C8.35575,11.1230279 9.34465574,9.64472681 10.4250426,8.22815598 C11.1741338,7.2459604 11.965996,6.30007109 12.7791718,5.37026441 C13.9172252,4.06901658 15.1350253,2.84635209 16.3689183,1.64025174 C16.715349,1.30164995 17.0464531,0.94094659 17.4347448,0.644140356 C17.5189936,0.579761716 17.5624352,0.563823548 17.6539162,0.636725015 C18.9932281,1.70429332 20.2092081,2.90721566 21.3752806,4.15568939 C23.1012078,6.00365007 24.6735808,7.98003098 26.0379422,10.1169973 C27.2152223,11.9610096 28.2342546,13.8841349 28.9560451,15.9598524 C29.3503717,17.0938699 29.6506308,18.2498926 29.8005448,19.4396696 C29.8762203,20.0401196 29.9370959,20.64707 29.9130522,21.0548175" id="Fill-20" fill="#40A140"></path>
            <path d="M30.9350098,33.6537955 C31.4619706,32.6573273 31.8510392,31.6101979 32.0343725,30.4951589 C32.1573627,29.7472657 32.2283922,28.9993725 32.1722157,28.2312739 C32.0933431,27.1523088 31.8682451,26.1181405 31.4868725,25.1121117 C31.335598,24.7130809 31.1549118,24.3282431 30.9500588,23.9550357 C30.9135882,23.8887524 30.8758431,23.8293684 30.8791765,23.7517996 C31.5222157,23.01943 31.8432941,22.167701 31.8116765,21.1882349 C31.8058922,21.0089495 31.7777549,20.830354 31.7599118,20.6514136 C32.1521667,20.9328591 32.4112843,21.3352903 32.683098,21.7184526 C33.5816765,22.9851795 34.2196176,24.3763417 34.5691275,25.8946004 C34.7190784,26.5460501 34.8178529,27.2048427 34.8639804,27.8754136 C34.8956471,28.3347154 34.9170196,28.7933766 34.8959902,29.2498201 C34.828098,30.7204238 34.5589804,32.1508632 33.9712843,33.5091055 C33.6913824,34.1559721 33.3905,34.792046 32.9936373,35.3770152 C32.9671176,35.4160953 32.9281961,35.4466497 32.8950588,35.4811466 C32.7465294,34.379315 31.8903039,33.7037175 30.9350098,33.6537955" id="Fill-22" fill="#888860"></path>
            <path d="M4.11875,23.802924 C3.80267157,24.4124353 3.50742647,25.0318522 3.30482843,25.6899548 C3.05953431,26.4866858 2.89762255,27.2972649 2.83654412,28.1340616 C2.69281863,30.1027515 3.17017157,31.9231047 4.06492647,33.6538152 C3.17703431,33.6692402 2.24571078,34.2817084 2.05786765,35.4328214 C1.57531863,34.7839343 1.25051471,34.0488049 0.942132353,33.3095359 C0.563308824,32.4014784 0.326544118,31.4470472 0.207622549,30.4722136 C0.103848039,29.6214702 0.0693872549,28.7669322 0.134485294,27.9032279 C0.214926471,26.8363368 0.398995098,25.7967474 0.745955882,24.790423 C1.24664216,23.3381027 1.97419118,22.0108583 3.00129902,20.861076 C3.05507353,20.8008542 3.12276961,20.7531499 3.18394608,20.6996304 C3.10933824,21.2228501 3.11571078,21.742768 3.25438725,22.2556386 C3.41340686,22.8437125 3.71002451,23.3552526 4.11875,23.802924" id="Fill-24" fill="#888860"></path>
            <path d="M21.1264951,37.4978809 C21.17375,37.5320821 21.1717892,37.5772731 21.1618382,37.6292649 C20.883799,39.0869569 19.4921814,40.3353018 18.0103186,40.5171992 C16.9358578,40.6490267 15.9721814,40.409963 15.1140931,39.7707351 C14.3888971,39.2305626 13.931299,38.4983409 13.7355637,37.6072854 C13.7258088,37.5626858 13.738848,37.5272033 13.7743382,37.4994086 C14.6544363,37.9587598 15.5766422,38.2955975 16.5619853,38.4320575 C17.7835049,38.6011417 18.9621814,38.4075647 20.1025735,37.959499 C20.4505637,37.8227926 20.7855637,37.6526735 21.1264951,37.4978809" id="Fill-26" fill="#91926A"></path>
            <path d="M6.0632549,33.9504936 C7.08158824,33.9663622 7.8914902,34.3065511 8.58501961,34.926855 C9.10467647,35.3917257 9.04492157,36.2833725 8.48335294,36.6331713 C8.14001961,36.8469536 7.49761765,36.7980172 7.1930098,36.5278571 C6.83487255,36.210239 6.45222549,35.9904444 5.9430098,36.0171055 C5.34408824,36.0484485 4.78497059,36.4393971 4.59948039,37.0192903 C4.33281373,37.8528345 4.79786275,38.765278 5.61085294,38.9576723 C5.92712745,39.0325799 6.24604902,39.0745183 6.53938235,39.2343376 C7.00394118,39.4873971 7.06036275,40.0349618 6.89408824,40.4342883 C6.63992157,41.0448838 6.31805882,41.1886867 5.65712745,41.1076189 C4.13957843,40.9216312 2.93452941,39.7889495 2.62413725,38.27966 C2.39712745,37.1757092 2.65702941,36.1737708 3.35482353,35.2862637 C3.87732353,34.6218037 4.56345098,34.2288838 5.37271569,34.0397421 C5.62521569,33.9807031 5.88281373,33.9378283 6.0632549,33.9504936" id="Fill-28" fill="#40A140"></path>
            <path d="M28.8764755,33.9547269 C30.57275,33.9541355 32.0882892,35.1943984 32.3898578,36.8652813 C32.6144657,38.1097823 32.2690735,39.2071786 31.3932402,40.1084353 C30.7807402,40.738694 30.002799,41.0631622 29.1309363,41.1481725 C28.5375049,41.2060287 28.0929461,40.7103573 28.0387794,40.1556961 C27.9748088,39.5007967 28.2787794,39.1875647 28.9822108,39.0442546 C29.5120147,38.9363778 29.9730931,38.7754251 30.2599069,38.2932567 C30.5487794,37.8074908 30.5770637,37.2934867 30.3032402,36.798308 C30.0330931,36.3096838 29.6146618,36.043269 29.0354951,36.0170021 C28.5350539,35.9942834 28.1657402,36.2213224 27.8083382,36.5245503 C27.3523578,36.9114579 26.3032892,36.9029815 26.1118186,36.0788994 C25.9994167,35.595154 26.0946127,35.1993758 26.5222598,34.8321314 C27.2295637,34.2246407 28.1710343,33.950538 28.8764755,33.9547269" id="Fill-30" fill="#40A140"></path>
            <path d="M17.7296127,25.5277207 C14.6819657,25.5228912 12.1939755,23.0186119 12.2048578,19.9316304 C12.2155441,16.902308 14.6955441,14.3438193 17.8334853,14.3895031 C20.7837794,14.4324271 23.3317696,16.8670226 23.282848,20.0603532 C23.2370637,23.0506448 20.8019657,25.5320575 17.7296127,25.5277207" id="Fill-32" fill="#186521"></path>
            <path d="M18.0408922,29.4210431 C18.0408922,29.8807885 18.0366765,30.3406324 18.0433922,30.8002793 C18.0455,30.9465462 18.0015784,30.9979959 17.8493725,31.0027762 C17.1066275,31.0261355 17.1067745,31.0306201 17.1067745,30.2951951 C17.1067745,29.5398604 17.1118725,28.7844764 17.103,28.0292895 C17.1008922,27.8491663 17.1469216,27.7739138 17.3352549,27.7903244 C17.5055,27.8051088 17.6784412,27.8015113 17.8493235,27.7911129 C18.0031961,27.7817988 18.045402,27.8465051 18.0433431,27.9925257 C18.0367745,28.4686324 18.0408922,28.9448378 18.0408922,29.4210431" id="Fill-34" fill="#1C7927"></path>
            <path d="M16.3227402,29.3045766 C16.3227402,29.7389421 16.3199461,30.1733569 16.3244069,30.6076238 C16.3257794,30.7394021 16.3112206,30.7863671 16.1490147,30.76217 C15.344652,30.6421207 15.3435735,30.6493651 15.3435735,29.842285 C15.3435735,29.2357799 15.3504363,28.6292255 15.3395049,28.0229175 C15.3361225,27.8349092 15.3983775,27.7744903 15.5780833,27.791246 C15.8119559,27.8130283 16.1103382,27.6963302 16.2654853,27.8356485 C16.4254363,27.9793035 16.3118578,28.2840591 16.3205343,28.517899 C16.3302892,28.7797799 16.3227402,29.0423507 16.3227402,29.3045766" id="Fill-36" fill="#1D7A28"></path>
            <path d="M18.8712794,29.2891269 C18.8712794,28.8623507 18.8762794,28.435476 18.8685833,28.0087984 C18.8658873,27.856322 18.9009363,27.7795417 19.0709363,27.7907778 C19.2578971,27.8031474 19.4464755,27.7984657 19.6340245,27.7920591 C19.7597108,27.7877717 19.8072598,27.8349339 19.8067206,27.9634595 C19.8031422,28.7841906 19.8024559,29.6049708 19.80775,30.4256526 C19.8085343,30.5482152 19.7639265,30.6070078 19.6514265,30.6296279 C19.4447108,30.6712706 19.2350049,30.7031556 19.032848,30.7612583 C18.8805441,30.8050694 18.8695147,30.7368148 18.87025,30.6187368 C18.8729461,30.1755499 18.8712794,29.7323138 18.8712794,29.2891269" id="Fill-38" fill="#1C7726"></path>
            <path d="M20.5384755,28.8880903 C20.5385245,28.5843696 20.5434265,28.2805996 20.5363186,27.977076 C20.5330833,27.8384969 20.5826912,27.7851745 20.7206814,27.7916304 C20.8917598,27.799614 21.0640147,27.8017823 21.234799,27.791039 C21.3925441,27.7811828 21.4268088,27.8539713 21.4250441,27.9957536 C21.4190637,28.4717125 21.4206324,28.9478686 21.4244069,29.4238768 C21.4252892,29.5324928 21.4059265,29.6125749 21.2931814,29.6566817 C21.1036716,29.7308501 20.9138186,29.8063491 20.7318578,29.8969281 C20.5834265,29.9708501 20.5308284,29.9485257 20.5360245,29.7744148 C20.544848,29.4792197 20.5384755,29.1835318 20.5384755,28.8880903" id="Fill-40" fill="#1D7927"></path>
            <path d="M14.5595196,28.8786579 C14.5595196,29.1904115 14.5566275,29.5021651 14.5608922,29.8139187 C14.5628039,29.9546661 14.5062843,29.9696969 14.4000588,29.9062226 C14.3650588,29.885278 14.3356471,29.8480706 14.2985882,29.8386579 C13.6958431,29.6860337 13.6043235,29.25566 13.6702549,28.7173602 C13.6999608,28.4748961 13.680549,28.2255326 13.6733431,27.9796682 C13.6693725,27.8440953 13.7136863,27.7849577 13.8547157,27.7915614 C14.0338333,27.8000378 14.2138824,27.7990522 14.3931471,27.7920542 C14.5237353,27.7869782 14.5632451,27.8444895 14.5611863,27.9679885 C14.5560392,28.2714628 14.5595196,28.575085 14.5595196,28.8786579" id="Fill-42" fill="#1C7727"></path>
            <path d="M22.4998333,19.9202168 C22.4966471,22.5567179 20.3522353,24.6923236 17.7106176,24.6898595 C15.0748824,24.6873462 12.9385098,22.5420813 12.9413039,19.9007014 C12.944098,17.2652353 15.0909118,15.126377 17.7302255,15.1294817 C20.3648333,15.1325372 22.5030196,17.2802168 22.4998333,19.9202168" id="Fill-44" fill="#C6FEFB"></path>
            <path d="M21.8136275,19.9550587 C21.8126961,22.1905577 19.9938725,24.0007589 17.7497059,23.9999211 C15.5165686,23.9989848 13.7228431,22.166952 13.7256373,19.8898595 C13.7284314,17.668455 15.5614216,15.8658924 17.8145098,15.8688 C20.0139706,15.8716583 21.8146078,17.7114776 21.8136275,19.9550587" id="Fill-46" fill="#89D4A4"></path>
            <path d="M17.5027059,18.0877602 C18.1821667,18.0335014 18.7381471,18.2612304 19.1991765,18.7763187 C19.7248137,19.3635548 19.7297157,20.5041216 19.2012843,21.0885487 C18.7812843,21.5531729 18.2856471,21.8160394 17.6539314,21.7813947 C16.8608431,21.7378793 16.1518725,21.1187088 15.9827059,20.357214 C15.9090294,20.0257971 15.8884902,19.693986 16.0316275,19.3720312 C16.0943235,19.3105281 16.1693235,19.3417232 16.2399118,19.3452222 C16.8715294,19.376368 17.3338333,18.9937478 17.4282451,18.3626021 C17.4423627,18.268524 17.4183922,18.1629634 17.5027059,18.0877602" id="Fill-48" fill="#6CBF79"></path>
            <path d="M17.5027059,18.0877602 C17.4767255,18.8393002 17.2084412,19.2155138 16.585598,19.3851893 C16.3975098,19.4363926 16.2153529,19.412984 16.0316275,19.3719819 C15.4597647,19.1643598 15.1726078,18.7491154 15.1963824,18.1641462 C15.2153529,17.6968608 15.5715294,17.2765897 16.0707451,17.132294 C16.6147647,16.9750867 17.230451,17.3091647 17.4397157,17.8765897 C17.4650588,17.9453372 17.4819216,18.0172879 17.5027059,18.0877602" id="Fill-50" fill="#CFEDD9"></path>
        </g>
    </g>
</svg>